<?xml version="1.0" encoding="UTF-8" standalone="no"?>
<!-- Created with Inkscape (http://www.inkscape.org/) -->

<svg
   width="343.14185mm"
   height="90.354439mm"
   viewBox="0 0 343.14185 90.354441"
   version="1.1"
   id="svg5"
   xmlns="http://www.w3.org/2000/svg"
   xmlns:svg="http://www.w3.org/2000/svg">
  <defs
     id="defs2">
    <filter
       style="color-interpolation-filters:sRGB"
       id="filter117644"
       x="-0.1425999"
       y="-0.14437909"
       width="1.2851998"
       height="1.2887582">
      <feColorMatrix
         result="result6"
         values="2 -1 0 0 0 0 2 -1 0 0 -1 0 2 0 0 0 0 0 1 0 "
         id="feColorMatrix117608" />
      <feTurbulence
         type="fractalNoise"
         baseFrequency="0.05"
         numOctaves="3"
         id="feTurbulence117610" />
      <feColorMatrix
         values="1 0 0 0 0 0 1 0 0 0 0 0 1 0 0 0 0 0 3 -1 "
         result="result0"
         id="feColorMatrix117612" />
      <feFlood
         result="result1"
         flood-color="rgb(146,144,165)"
         flood-opacity="1"
         id="feFlood117614" />
      <feBlend
         result="result2"
         in="result1"
         mode="multiply"
         in2="result6"
         id="feBlend117616" />
      <feComposite
         result="result3"
         operator="out"
         in2="result0"
         id="feComposite117618" />
      <feComposite
         result="fbSourceGraphic"
         operator="atop"
         in2="result6"
         id="feComposite117620" />
      <feGaussianBlur
         in="fbSourceGraphic"
         stdDeviation="2"
         result="result3"
         id="feGaussianBlur117622" />
      <feGaussianBlur
         result="result4"
         in="fbSourceGraphic"
         stdDeviation="0.01"
         id="feGaussianBlur117624" />
      <feBlend
         mode="darken"
         in2="result3"
         id="feBlend117626" />
      <feColorMatrix
         type="hueRotate"
         values="0"
         id="feColorMatrix117628" />
      <feComponentTransfer
         result="result1"
         id="feComponentTransfer117636">
        <feFuncR
           type="discrete"
           tableValues="0 0.2 0.4 0.6 0.8 1 1"
           id="feFuncR117630" />
        <feFuncG
           type="discrete"
           tableValues="0 0.2 0.4 0.6 0.8 1 1"
           id="feFuncG117632" />
        <feFuncB
           type="discrete"
           tableValues="0 0.2 0.4 0.6 0.8 1 1"
           id="feFuncB117634" />
      </feComponentTransfer>
      <feColorMatrix
         values="1"
         type="saturate"
         id="feColorMatrix117638" />
      <feGaussianBlur
         result="result5"
         stdDeviation="0.01"
         id="feGaussianBlur117640" />
      <feComposite
         operator="in"
         result="result2"
         in2="SourceGraphic"
         id="feComposite117642" />
    </filter>
    <clipPath
       clipPathUnits="userSpaceOnUse"
       id="clipPath222523">
      <ellipse
         style="fill:none;fill-opacity:1;stroke:#000000;stroke-width:0.377031;stroke-linejoin:round;stroke-miterlimit:4;stroke-dasharray:none;stroke-opacity:1"
         id="ellipse222525"
         ry="59.5191"
         rx="59.545223"
         cy="133.5224"
         cx="91.558517" />
    </clipPath>
    <filter
       style="color-interpolation-filters:sRGB"
       id="filter117644-7"
       x="-0.28519979"
       y="-0.28875819"
       width="1.5703996"
       height="1.5775164">
      <feColorMatrix
         result="result6"
         values="2 -1 0 0 0 0 2 -1 0 0 -1 0 2 0 0 0 0 0 1 0 "
         id="feColorMatrix117608-4" />
      <feTurbulence
         type="fractalNoise"
         baseFrequency="0.05"
         numOctaves="3"
         id="feTurbulence117610-1" />
      <feColorMatrix
         values="1 0 0 0 0 0 1 0 0 0 0 0 1 0 0 0 0 0 3 -1 "
         result="result0"
         id="feColorMatrix117612-7" />
      <feFlood
         result="result1"
         flood-color="rgb(146,144,165)"
         flood-opacity="1"
         id="feFlood117614-1" />
      <feBlend
         result="result2"
         in="result1"
         mode="multiply"
         in2="result6"
         id="feBlend117616-1" />
      <feComposite
         result="result3"
         operator="out"
         in2="result0"
         id="feComposite117618-1" />
      <feComposite
         result="fbSourceGraphic"
         operator="atop"
         in2="result6"
         id="feComposite117620-7" />
      <feGaussianBlur
         in="fbSourceGraphic"
         stdDeviation="2"
         result="result3"
         id="feGaussianBlur117622-0" />
      <feGaussianBlur
         result="result4"
         in="fbSourceGraphic"
         stdDeviation="0.01"
         id="feGaussianBlur117624-4" />
      <feBlend
         mode="darken"
         in2="result3"
         id="feBlend117626-0" />
      <feColorMatrix
         type="hueRotate"
         values="0"
         id="feColorMatrix117628-8" />
      <feComponentTransfer
         result="result1"
         id="feComponentTransfer117636-5">
        <feFuncR
           type="discrete"
           tableValues="0 0.2 0.4 0.6 0.8 1 1"
           id="feFuncR117630-1" />
        <feFuncG
           type="discrete"
           tableValues="0 0.2 0.4 0.6 0.8 1 1"
           id="feFuncG117632-6" />
        <feFuncB
           type="discrete"
           tableValues="0 0.2 0.4 0.6 0.8 1 1"
           id="feFuncB117634-6" />
      </feComponentTransfer>
      <feColorMatrix
         values="1"
         type="saturate"
         id="feColorMatrix117638-2" />
      <feGaussianBlur
         result="result5"
         stdDeviation="0.01"
         id="feGaussianBlur117640-1" />
      <feComposite
         operator="in"
         result="fbSourceGraphic"
         in2="SourceGraphic"
         id="feComposite117642-9" />
      <feColorMatrix
         result="fbSourceGraphicAlpha"
         in="fbSourceGraphic"
         values="0 0 0 -1 0 0 0 0 -1 0 0 0 0 -1 0 0 0 0 1 0"
         id="feColorMatrix301850" />
      <feColorMatrix
         id="feColorMatrix301852"
         result="result6"
         values="2 -1 0 0 0 0 2 -1 0 0 -1 0 2 0 0 0 0 0 1 0 "
         in="fbSourceGraphic" />
      <feTurbulence
         id="feTurbulence301854"
         type="fractalNoise"
         baseFrequency="0.05"
         numOctaves="3" />
      <feColorMatrix
         id="feColorMatrix301856"
         values="1 0 0 0 0 0 1 0 0 0 0 0 1 0 0 0 0 0 3 -1 "
         result="result0" />
      <feFlood
         id="feFlood301858"
         result="result1"
         flood-color="rgb(146,144,165)"
         flood-opacity="1" />
      <feBlend
         in2="result6"
         id="feBlend301860"
         result="result2"
         in="result1"
         mode="multiply" />
      <feComposite
         in2="result0"
         id="feComposite301862"
         result="result3"
         operator="out" />
      <feComposite
         in2="result6"
         id="feComposite301864"
         result="fbSourceGraphic"
         operator="atop" />
      <feGaussianBlur
         id="feGaussianBlur301866"
         in="fbSourceGraphic"
         stdDeviation="2"
         result="result3" />
      <feGaussianBlur
         id="feGaussianBlur301868"
         result="result4"
         in="fbSourceGraphic"
         stdDeviation="0.01" />
      <feBlend
         in2="result3"
         id="feBlend301870"
         mode="darken" />
      <feColorMatrix
         id="feColorMatrix301872"
         type="hueRotate"
         values="0" />
      <feComponentTransfer
         id="feComponentTransfer301874"
         result="result1">
        <feFuncR
           id="feFuncR301876"
           type="discrete"
           tableValues="0 0.2 0.4 0.6 0.8 1 1" />
        <feFuncG
           id="feFuncG301878"
           type="discrete"
           tableValues="0 0.2 0.4 0.6 0.8 1 1" />
        <feFuncB
           id="feFuncB301880"
           type="discrete"
           tableValues="0 0.2 0.4 0.6 0.8 1 1" />
      </feComponentTransfer>
      <feColorMatrix
         id="feColorMatrix301882"
         values="1"
         type="saturate" />
      <feGaussianBlur
         id="feGaussianBlur301884"
         result="result5"
         stdDeviation="0.01" />
      <feComposite
         in2="fbSourceGraphic"
         id="feComposite301886"
         operator="in"
         result="result2" />
    </filter>
    <filter
       style="color-interpolation-filters:sRGB"
       id="filter117644-7-8"
       x="-0.28519979"
       y="-0.28875819"
       width="1.5703996"
       height="1.5775164">
      <feColorMatrix
         result="result6"
         values="2 -1 0 0 0 0 2 -1 0 0 -1 0 2 0 0 0 0 0 1 0 "
         id="feColorMatrix117608-4-1" />
      <feTurbulence
         type="fractalNoise"
         baseFrequency="0.05"
         numOctaves="3"
         id="feTurbulence117610-1-0" />
      <feColorMatrix
         values="1 0 0 0 0 0 1 0 0 0 0 0 1 0 0 0 0 0 3 -1 "
         result="result0"
         id="feColorMatrix117612-7-2" />
      <feFlood
         result="result1"
         flood-color="rgb(146,144,165)"
         flood-opacity="1"
         id="feFlood117614-1-2" />
      <feBlend
         result="result2"
         in="result1"
         mode="multiply"
         in2="result6"
         id="feBlend117616-1-9" />
      <feComposite
         result="result3"
         operator="out"
         in2="result0"
         id="feComposite117618-1-7" />
      <feComposite
         result="fbSourceGraphic"
         operator="atop"
         in2="result6"
         id="feComposite117620-7-5" />
      <feGaussianBlur
         in="fbSourceGraphic"
         stdDeviation="2"
         result="result3"
         id="feGaussianBlur117622-0-6" />
      <feGaussianBlur
         result="result4"
         in="fbSourceGraphic"
         stdDeviation="0.01"
         id="feGaussianBlur117624-4-4" />
      <feBlend
         mode="darken"
         in2="result3"
         id="feBlend117626-0-6" />
      <feColorMatrix
         type="hueRotate"
         values="0"
         id="feColorMatrix117628-8-3" />
      <feComponentTransfer
         result="result1"
         id="feComponentTransfer117636-5-7">
        <feFuncR
           type="discrete"
           tableValues="0 0.2 0.4 0.6 0.8 1 1"
           id="feFuncR117630-1-9" />
        <feFuncG
           type="discrete"
           tableValues="0 0.2 0.4 0.6 0.8 1 1"
           id="feFuncG117632-6-7" />
        <feFuncB
           type="discrete"
           tableValues="0 0.2 0.4 0.6 0.8 1 1"
           id="feFuncB117634-6-4" />
      </feComponentTransfer>
      <feColorMatrix
         values="1"
         type="saturate"
         id="feColorMatrix117638-2-9" />
      <feGaussianBlur
         result="result5"
         stdDeviation="0.01"
         id="feGaussianBlur117640-1-1" />
      <feComposite
         operator="in"
         result="fbSourceGraphic"
         in2="SourceGraphic"
         id="feComposite117642-9-7" />
      <feColorMatrix
         result="fbSourceGraphicAlpha"
         in="fbSourceGraphic"
         values="0 0 0 -1 0 0 0 0 -1 0 0 0 0 -1 0 0 0 0 1 0"
         id="feColorMatrix301850-0" />
      <feColorMatrix
         id="feColorMatrix301852-6"
         result="result6"
         values="2 -1 0 0 0 0 2 -1 0 0 -1 0 2 0 0 0 0 0 1 0 "
         in="fbSourceGraphic" />
      <feTurbulence
         id="feTurbulence301854-0"
         type="fractalNoise"
         baseFrequency="0.05"
         numOctaves="3" />
      <feColorMatrix
         id="feColorMatrix301856-8"
         values="1 0 0 0 0 0 1 0 0 0 0 0 1 0 0 0 0 0 3 -1 "
         result="result0" />
      <feFlood
         id="feFlood301858-5"
         result="result1"
         flood-color="rgb(146,144,165)"
         flood-opacity="1" />
      <feBlend
         in2="result6"
         id="feBlend301860-3"
         result="result2"
         in="result1"
         mode="multiply" />
      <feComposite
         in2="result0"
         id="feComposite301862-9"
         result="result3"
         operator="out" />
      <feComposite
         in2="result6"
         id="feComposite301864-4"
         result="fbSourceGraphic"
         operator="atop" />
      <feGaussianBlur
         id="feGaussianBlur301866-1"
         in="fbSourceGraphic"
         stdDeviation="2"
         result="result3" />
      <feGaussianBlur
         id="feGaussianBlur301868-5"
         result="result4"
         in="fbSourceGraphic"
         stdDeviation="0.01" />
      <feBlend
         in2="result3"
         id="feBlend301870-4"
         mode="darken" />
      <feColorMatrix
         id="feColorMatrix301872-1"
         type="hueRotate"
         values="0" />
      <feComponentTransfer
         id="feComponentTransfer301874-5"
         result="result1">
        <feFuncR
           id="feFuncR301876-5"
           type="discrete"
           tableValues="0 0.2 0.4 0.6 0.8 1 1" />
        <feFuncG
           id="feFuncG301878-4"
           type="discrete"
           tableValues="0 0.2 0.4 0.6 0.8 1 1" />
        <feFuncB
           id="feFuncB301880-9"
           type="discrete"
           tableValues="0 0.2 0.4 0.6 0.8 1 1" />
      </feComponentTransfer>
      <feColorMatrix
         id="feColorMatrix301882-8"
         values="1"
         type="saturate" />
      <feGaussianBlur
         id="feGaussianBlur301884-3"
         result="result5"
         stdDeviation="0.01" />
      <feComposite
         in2="fbSourceGraphic"
         id="feComposite301886-8"
         operator="in"
         result="result2" />
    </filter>
    <clipPath
       clipPathUnits="userSpaceOnUse"
       id="clipPath4425">
      <g
         id="g4431"
         style="display:block">
        <path
           style="fill:#800000;stroke:none;stroke-width:0.282128px;stroke-linecap:butt;stroke-linejoin:miter;stroke-opacity:1"
           d="m 468.42098,90.628541 c -2.31785,43.235559 -2.45206,74.265989 0.39696,88.622399 l 3.56338,-86.037463 z"
           id="path4427" />
        <path
           style="fill:#800000;stroke:none;stroke-width:0.445645px;stroke-linecap:butt;stroke-linejoin:miter;stroke-opacity:1"
           d="m 127.43821,89.441836 c 5.19372,48.142994 5.49445,82.695524 -0.88947,98.681454 l -7.98463,-95.803112 z"
           id="path4429" />
      </g>
    </clipPath>
  </defs>
  <g
     id="layer1"
     transform="translate(-125.89448,-88.980714)">
    <g
       aria-label="NYC"
       transform="rotate(67.346734)"
       id="text37972"
       style="font-size:17.2266px;line-height:1.25;font-family:Fascinate;-inkscape-font-specification:'Fascinate, Normal';fill:#0d092a;stroke-width:0.430667" />
    <path
       id="rect200084"
       style="fill:#d55d35;stroke-width:0.216677;stroke-linejoin:round"
       d="m 125.92526,123.2589 h 342.83131 c 0.0171,0 0.0308,0.0153 0.0308,0.0342 v 56.00783 c 0,0.019 -0.0138,0.0342 -0.0308,0.0342 -164.17391,-0.17841 -236.5468,-4.32659 -342.83131,0 -0.017,6.9e-4 -0.0307,-0.0153 -0.0307,-0.0342 V 123.2931 c 0,-0.019 0.0138,-0.0342 0.0307,-0.0342 z" />
    <path
       id="rect200084-7"
       style="fill:#0c0829;stroke-width:0.209179;stroke-linejoin:round"
       d="m 125.92317,92.026779 c 32.38679,-3.377319 243.63402,-4.692619 343.08446,0 0.0159,7.5e-4 0.0287,0.01422 0.0287,0.03189 v 43.246111 c 0,0.0177 -111.12475,0.89976 -144.53991,5.54224 l -198.57323,-5.51034 c -0.0159,-4.4e-4 -0.0287,-0.0142 -0.0287,-0.0319 V 92.058666 c 0,-0.01767 0.0128,-0.03189 0.0287,-0.03189 z" />
    <text
       xml:space="preserve"
       style="font-style:normal;font-variant:normal;font-weight:normal;font-stretch:normal;font-size:22.5778px;line-height:1.25;font-family:Fascinate;-inkscape-font-specification:'Fascinate, Normal';font-variant-ligatures:normal;font-variant-caps:normal;font-variant-numeric:normal;font-variant-east-asian:normal;fill:#f6e4aa;fill-opacity:1;stroke:none;stroke-width:0.264583"
       x="162.10382"
       y="121.62296"
       id="text243657"><tspan
         id="tspan243655"
         style="font-style:normal;font-variant:normal;font-weight:normal;font-stretch:normal;font-size:22.5778px;font-family:Fascinate;-inkscape-font-specification:'Fascinate, Normal';font-variant-ligatures:normal;font-variant-caps:normal;font-variant-numeric:normal;font-variant-east-asian:normal;fill:#f6e4aa;fill-opacity:1;stroke-width:0.264583"
         x="162.10382"
         y="121.62296">NEW YORK CITY SCHOOLS</tspan></text>
    <text
       xml:space="preserve"
       style="font-style:normal;font-variant:normal;font-weight:normal;font-stretch:normal;font-size:22.5778px;line-height:1.25;font-family:Fascinate;-inkscape-font-specification:'Fascinate, Normal';font-variant-ligatures:normal;font-variant-caps:normal;font-variant-numeric:normal;font-variant-east-asian:normal;fill:#d55d35;fill-opacity:1;stroke:none;stroke-width:0.264583"
       x="161.0455"
       y="120.92875"
       id="text243657-8"><tspan
         id="tspan243655-0"
         style="font-style:normal;font-variant:normal;font-weight:normal;font-stretch:normal;font-size:22.5778px;font-family:Fascinate;-inkscape-font-specification:'Fascinate, Normal';font-variant-ligatures:normal;font-variant-caps:normal;font-variant-numeric:normal;font-variant-east-asian:normal;fill:#d55d35;fill-opacity:1;stroke-width:0.264583"
         x="161.0455"
         y="120.92875">NEW YORK CITY SCHOOLS</tspan></text>
    <path
       d="m 199.90512,161.13617 q -0.88195,0 -1.77492,-0.15434 -0.88194,-0.15434 -1.69774,-0.52917 -0.8158,-0.37482 -1.52136,-0.99219 -0.70555,-0.62838 -1.23472,-1.55442 -0.51814,-0.93707 -0.8158,-2.20487 -0.29766,-1.27882 -0.29766,-2.96554 0,-1.67569 0.29766,-2.95452 0.29766,-1.27882 0.8158,-2.20486 0.52917,-0.93707 1.23472,-1.55443 0.70556,-0.61736 1.52136,-0.98116 0.8158,-0.37483 1.69774,-0.52917 0.89297,-0.15434 1.77492,-0.15434 0.88195,0 1.77491,0.15434 0.89297,0.15434 1.70877,0.52917 0.8158,0.3638 1.52136,0.98116 0.70556,0.61736 1.2237,1.55443 0.51814,0.92604 0.8158,2.20486 0.29765,1.27883 0.29765,2.95452 0,1.6757 -0.29765,2.95452 -0.29766,1.27882 -0.8158,2.21589 -0.51814,0.92604 -1.2237,1.55442 -0.70556,0.61737 -1.52136,0.99219 -0.8158,0.37483 -1.70877,0.52917 -0.89296,0.15434 -1.77491,0.15434 z m 0.99219,-8.40053 q 0,1.37804 0.19844,2.30408 0.20946,0.92605 0.55121,1.48829 0.34176,0.56224 0.76068,0.80477 0.42995,0.23151 0.88194,0.23151 0.452,0 0.88195,-0.23151 0.42995,-0.24253 0.76068,-0.80477 0.34175,-0.56224 0.54019,-1.48829 0.20946,-0.92604 0.20946,-2.30408 0,-1.37804 -0.20946,-2.30408 -0.19844,-0.92604 -0.54019,-1.48828 -0.33073,-0.56224 -0.76068,-0.79375 -0.42995,-0.24254 -0.88195,-0.24254 -0.45199,0 -0.88194,0.24254 -0.41892,0.23151 -0.76068,0.79375 -0.34175,0.56224 -0.55121,1.48828 -0.19844,0.92604 -0.19844,2.30408 z"
       id="path303559"
       style="font-size:22.5778px;line-height:1.25;font-family:Fascinate;-inkscape-font-specification:'Fascinate, Normal';fill:#f6e4aa;stroke-width:0.264583" />
    <path
       d="m 208.93403,146.41871 q 0,-0.38585 0.0661,-0.67249 0.0662,-0.28663 0.25356,-0.47404 0.18741,-0.19844 0.51814,-0.29766 0.33073,-0.0992 0.8599,-0.0992 h 4.91684 q 0.76068,0 1.51034,0.0992 0.74965,0.0882 1.43316,0.30868 0.69453,0.22049 1.27882,0.57327 0.59531,0.35278 1.02526,0.88194 0.44097,0.51815 0.68351,1.2237 0.25356,0.69453 0.25356,1.60955 0,1.35599 -0.37483,2.29306 -0.3638,0.92604 -0.99219,1.53238 -0.62838,0.60634 -1.46623,0.92604 -0.82683,0.31971 -1.74185,0.46302 v 4.13412 q 0,0.25356 -0.0441,0.56224 -0.0441,0.30868 -0.22049,0.58429 -0.17639,0.26459 -0.54019,0.452 -0.3638,0.18741 -1.00321,0.18741 h -4.71841 q -0.52917,0 -0.8599,-0.0992 -0.33073,-0.0992 -0.51814,-0.28663 -0.18741,-0.18741 -0.25356,-0.47404 -0.0661,-0.28664 -0.0661,-0.67249 z m 11.24481,3.31832 q 0,-0.66146 -0.17639,-1.21268 -0.17639,-0.56224 -0.54019,-0.98116 -0.36381,-0.41893 -0.93707,-0.69453 -0.57326,-0.27561 -1.36702,-0.37483 v 6.8461 q 0.79376,-0.12127 1.36702,-0.44097 0.57326,-0.31971 0.93707,-0.79375 0.3638,-0.47405 0.54019,-1.06936 0.17639,-0.60634 0.17639,-1.27882 z"
       id="path303561"
       style="font-size:22.5778px;line-height:1.25;font-family:Fascinate;-inkscape-font-specification:'Fascinate, Normal';fill:#f6e4aa;stroke-width:0.264583" />
    <path
       d="m 231.42364,150.40951 v 8.94072 q 1.06936,-0.15434 1.96233,-0.27561 0.37483,-0.0551 0.74965,-0.0992 0.38585,-0.0551 0.70556,-0.0992 0.3197,-0.0441 0.55122,-0.0662 0.23151,-0.022 0.3197,-0.022 0.18741,0 0.31971,0.0772 0.13229,0.0661 0.13229,0.28663 v 1.01424 q 0,0.19844 -0.0992,0.37483 -0.0992,0.16536 -0.47405,0.16536 h -10.71563 q -0.51815,0 -0.84887,-0.0992 -0.31971,-0.0992 -0.50712,-0.28663 -0.18742,-0.18741 -0.25356,-0.47404 -0.0662,-0.28664 -0.0662,-0.67249 v -12.38031 q 0,-0.62838 0.14332,-1.00321 0.14331,-0.38585 0.4079,-0.58429 0.26458,-0.20946 0.62838,-0.26458 0.37483,-0.0661 0.82683,-0.0661 h 9.96598 q 0.37483,0 0.47404,0.17639 0.11025,0.16537 0.11025,0.37483 v 0.78273 q 0,0.22048 -0.12127,0.29765 -0.11024,0.0661 -0.29766,0.0661 -0.11024,0 -0.34175,-0.0221 -0.22049,-0.022 -0.51814,-0.0551 -0.29766,-0.0441 -0.63941,-0.0882 -0.34176,-0.0441 -0.68351,-0.0992 -0.79375,-0.12126 -1.73082,-0.2756 v 2.80017 h 4.10105 q 0.23151,0 0.23151,0.23151 v 1.10244 q 0,0.24253 -0.23151,0.24253 z"
       id="path303563"
       style="font-size:22.5778px;line-height:1.25;font-family:Fascinate;-inkscape-font-specification:'Fascinate, Normal';fill:#f6e4aa;stroke-width:0.264583" />
    <path
       d="m 250.27522,144.8753 q 0.20947,0 0.37483,0.1323 0.16537,0.13229 0.16537,0.50711 v 14.37571 q 0,0.8158 -0.77171,0.8158 h -3.82543 q -0.36381,0 -0.60634,-0.14331 -0.23151,-0.14332 -0.41893,-0.33073 l -5.64445,-5.89801 q 0.0992,1.43316 0.19844,2.63481 0.0331,0.51814 0.0772,1.02526 0.0441,0.50712 0.0772,0.94809 0.0331,0.44097 0.0551,0.7717 0.0331,0.33073 0.0441,0.47405 0.0221,0.18741 -0.0661,0.35278 -0.0772,0.16536 -0.37483,0.16536 h -1.38907 q -0.19843,0 -0.37482,-0.12126 -0.16537,-0.1323 -0.16537,-0.50712 V 145.6911 q 0,-0.8158 0.904,-0.8158 h 3.72622 q 0.41892,0 0.69453,0.17639 0.28663,0.17639 0.57326,0.46302 l 5.36884,5.32475 q -0.11024,-1.31189 -0.19843,-2.42535 -0.0441,-0.47405 -0.0882,-0.94809 -0.0331,-0.47405 -0.0661,-0.88195 -0.0331,-0.41892 -0.0661,-0.7276 -0.0221,-0.30868 -0.0331,-0.46302 -0.022,-0.17639 0.0661,-0.34176 0.0992,-0.17639 0.44098,-0.17639 z"
       id="path303565"
       style="font-size:22.5778px;line-height:1.25;font-family:Fascinate;-inkscape-font-specification:'Fascinate, Normal';fill:#f6e4aa;stroke-width:0.264583" />
    <path
       d="m 259.61282,146.41871 q 0,-0.38585 0.0661,-0.67249 0.0661,-0.28663 0.25356,-0.47404 0.18741,-0.19844 0.51814,-0.29766 0.33073,-0.0992 0.8599,-0.0992 h 5.3027 q 0.82682,0 1.64262,0.12127 0.8158,0.11024 1.55443,0.4079 0.73863,0.29766 1.36701,0.82682 0.63941,0.51815 1.10244,1.34497 0.46302,0.82683 0.7276,1.98438 0.26458,1.15755 0.26458,2.723 0,1.84107 -0.28663,3.18603 -0.27561,1.33394 -0.76068,2.27101 -0.47404,0.93707 -1.1355,1.52136 -0.65043,0.57326 -1.41111,0.90399 -0.74966,0.31971 -1.56546,0.42995 -0.80477,0.11024 -1.60955,0.11024 h -5.19245 q -0.52917,0 -0.8599,-0.0992 -0.33073,-0.0992 -0.51814,-0.28663 -0.18741,-0.18741 -0.25356,-0.47404 -0.0661,-0.28664 -0.0661,-0.67249 z m 12.1047,6.09645 q 0,-1.36702 -0.22049,-2.4915 -0.22049,-1.12448 -0.69453,-1.91823 -0.47405,-0.79375 -1.21268,-1.23473 -0.7276,-0.44097 -1.75286,-0.45199 v 12.75513 q 1.02526,-0.011 1.76389,-0.52916 0.73863,-0.52917 1.20165,-1.43317 0.47404,-0.90399 0.69453,-2.10564 0.22049,-1.21268 0.22049,-2.59071 z"
       id="path303567"
       style="font-size:22.5778px;line-height:1.25;font-family:Fascinate;-inkscape-font-specification:'Fascinate, Normal';fill:#f6e4aa;stroke-width:0.264583" />
    <path
       d="m 281.42995,144.8753 q 0.19843,0 0.34175,0.0551 0.14332,0.0441 0.25356,0.16536 0.12127,0.12127 0.22049,0.31971 0.0992,0.19843 0.20946,0.48507 l 5.06016,13.51581 q 0.0551,0.15434 0.0772,0.27561 0.0221,0.12126 0.0221,0.24253 0,0.39688 -0.24254,0.58429 -0.23151,0.18741 -0.49609,0.18741 h -6.25079 q -0.28663,0 -0.48507,-0.0661 -0.18741,-0.0772 -0.3197,-0.17639 -0.1323,-0.0992 -0.20947,-0.20946 -0.0661,-0.11025 -0.0882,-0.19844 l -0.12127,-0.38585 h -3.09783 l -0.0772,0.33073 q -0.0331,0.16536 -0.0772,0.29765 -0.0441,0.12127 -0.11024,0.22049 -0.0661,0.0882 -0.18742,0.14332 -0.11024,0.0441 -0.29765,0.0441 h -1.13551 q -0.35278,0 -0.35278,-0.27561 0,-0.0992 0.0331,-0.23151 0.0441,-0.14331 0.11024,-0.33073 l 4.60816,-13.94576 q 0.16537,-0.51814 0.37483,-0.7717 0.20946,-0.25356 0.59531,-0.27561 z m -4.78456,13.43865 h 2.38125 l -1.22369,-4.31051 z"
       id="path303569"
       style="font-size:22.5778px;line-height:1.25;font-family:Fascinate;-inkscape-font-specification:'Fascinate, Normal';fill:#f6e4aa;stroke-width:0.264583" />
    <path
       d="m 289.97379,146.48485 q -0.71659,0.15434 -1.32292,0.27561 -0.26459,0.0551 -0.52917,0.0992 -0.25356,0.0441 -0.48507,0.0882 -0.23151,0.0331 -0.41892,0.0551 -0.17639,0.0221 -0.26459,0.0221 -0.18741,0 -0.3197,-0.0661 -0.12127,-0.0772 -0.12127,-0.29766 v -1.23472 q 0,-0.20946 0.17639,-0.37483 0.17639,-0.17639 0.55121,-0.17639 h 13.68118 q 0.37483,0 0.55122,0.17639 0.17639,0.16537 0.17639,0.37483 v 1.23472 q 0,0.22049 -0.13229,0.29766 -0.12127,0.0661 -0.30869,0.0661 -0.0992,0 -0.2756,-0.0221 -0.17639,-0.022 -0.4079,-0.0551 -0.23151,-0.0441 -0.4961,-0.0882 -0.25356,-0.0441 -0.51814,-0.0992 -0.60634,-0.12127 -1.32292,-0.27561 v 12.71104 q 0,0.37483 -0.0661,0.66146 -0.0661,0.27561 -0.25356,0.47405 -0.17639,0.18741 -0.4961,0.28663 -0.3197,0.0882 -0.8158,0.0882 h -4.91684 q -0.51815,0 -0.84888,-0.0992 -0.3197,-0.0992 -0.50711,-0.28663 -0.17639,-0.18741 -0.24254,-0.47404 -0.0661,-0.28664 -0.0661,-0.67249 z"
       id="path303571"
       style="font-size:22.5778px;line-height:1.25;font-family:Fascinate;-inkscape-font-specification:'Fascinate, Normal';fill:#f6e4aa;stroke-width:0.264583" />
    <path
       d="m 307.91035,144.8753 q 0.19844,0 0.34176,0.0551 0.14331,0.0441 0.25356,0.16536 0.12126,0.12127 0.22048,0.31971 0.0992,0.19843 0.20947,0.48507 l 5.06016,13.51581 q 0.0551,0.15434 0.0772,0.27561 0.0221,0.12126 0.0221,0.24253 0,0.39688 -0.24254,0.58429 -0.23151,0.18741 -0.49609,0.18741 h -6.25079 q -0.28663,0 -0.48507,-0.0661 -0.18741,-0.0772 -0.31971,-0.17639 -0.13229,-0.0992 -0.20946,-0.20946 -0.0661,-0.11025 -0.0882,-0.19844 l -0.12127,-0.38585 h -3.09783 l -0.0772,0.33073 q -0.0331,0.16536 -0.0772,0.29765 -0.0441,0.12127 -0.11025,0.22049 -0.0661,0.0882 -0.18741,0.14332 -0.11024,0.0441 -0.29766,0.0441 h -1.1355 q -0.35278,0 -0.35278,-0.27561 0,-0.0992 0.0331,-0.23151 0.0441,-0.14331 0.11025,-0.33073 l 4.60816,-13.94576 q 0.16537,-0.51814 0.37483,-0.7717 0.20946,-0.25356 0.59531,-0.27561 z m -4.78455,13.43865 h 2.38125 l -1.2237,-4.31051 z"
       id="path303573"
       style="font-size:22.5778px;line-height:1.25;font-family:Fascinate;-inkscape-font-specification:'Fascinate, Normal';fill:#f6e4aa;stroke-width:0.264583" />
    <path
       d="m 321.9884,146.41871 q 0,-0.38585 0.0661,-0.67249 0.0661,-0.28663 0.25356,-0.47404 0.18741,-0.19844 0.51814,-0.29766 0.33073,-0.0992 0.8599,-0.0992 h 4.91684 q 0.76068,0 1.51034,0.0992 0.74965,0.0882 1.43316,0.30868 0.69453,0.22049 1.27882,0.57327 0.59531,0.35278 1.02526,0.88194 0.44097,0.51815 0.68351,1.2237 0.25356,0.69453 0.25356,1.60955 0,1.35599 -0.37483,2.29306 -0.3638,0.92604 -0.99219,1.53238 -0.62839,0.60634 -1.46623,0.92604 -0.82683,0.31971 -1.74185,0.46302 v 4.13412 q 0,0.25356 -0.0441,0.56224 -0.0441,0.30868 -0.22049,0.58429 -0.17639,0.26459 -0.54019,0.452 -0.3638,0.18741 -1.00321,0.18741 h -4.71841 q -0.52917,0 -0.8599,-0.0992 -0.33073,-0.0992 -0.51814,-0.28663 -0.18741,-0.18741 -0.25356,-0.47404 -0.0661,-0.28664 -0.0661,-0.67249 z m 11.24481,3.31832 q 0,-0.66146 -0.17639,-1.21268 -0.17639,-0.56224 -0.54019,-0.98116 -0.36381,-0.41893 -0.93707,-0.69453 -0.57327,-0.27561 -1.36702,-0.37483 v 6.8461 q 0.79375,-0.12127 1.36702,-0.44097 0.57326,-0.31971 0.93707,-0.79375 0.3638,-0.47405 0.54019,-1.06936 0.17639,-0.60634 0.17639,-1.27882 z"
       id="path303575"
       style="font-size:22.5778px;line-height:1.25;font-family:Fascinate;-inkscape-font-specification:'Fascinate, Normal';fill:#f6e4aa;fill-opacity:1;stroke-width:0.264583" />
    <path
       d="m 343.25432,161.13617 q -0.88195,0 -1.77492,-0.15434 -0.88194,-0.15434 -1.69774,-0.52917 -0.8158,-0.37482 -1.52136,-0.99219 -0.70555,-0.62838 -1.23472,-1.55442 -0.51814,-0.93707 -0.8158,-2.20487 -0.29766,-1.27882 -0.29766,-2.96554 0,-1.67569 0.29766,-2.95452 0.29766,-1.27882 0.8158,-2.20486 0.52917,-0.93707 1.23472,-1.55443 0.70556,-0.61736 1.52136,-0.98116 0.8158,-0.37483 1.69774,-0.52917 0.89297,-0.15434 1.77492,-0.15434 0.88194,0 1.77491,0.15434 0.89297,0.15434 1.70877,0.52917 0.8158,0.3638 1.52136,0.98116 0.70555,0.61736 1.2237,1.55443 0.51814,0.92604 0.8158,2.20486 0.29765,1.27883 0.29765,2.95452 0,1.6757 -0.29765,2.95452 -0.29766,1.27882 -0.8158,2.21589 -0.51815,0.92604 -1.2237,1.55442 -0.70556,0.61737 -1.52136,0.99219 -0.8158,0.37483 -1.70877,0.52917 -0.89297,0.15434 -1.77491,0.15434 z m 0.99219,-8.40053 q 0,1.37804 0.19843,2.30408 0.20947,0.92605 0.55122,1.48829 0.34175,0.56224 0.76068,0.80477 0.42995,0.23151 0.88194,0.23151 0.452,0 0.88195,-0.23151 0.42995,-0.24253 0.76068,-0.80477 0.34175,-0.56224 0.54019,-1.48829 0.20946,-0.92604 0.20946,-2.30408 0,-1.37804 -0.20946,-2.30408 -0.19844,-0.92604 -0.54019,-1.48828 -0.33073,-0.56224 -0.76068,-0.79375 -0.42995,-0.24254 -0.88195,-0.24254 -0.45199,0 -0.88194,0.24254 -0.41893,0.23151 -0.76068,0.79375 -0.34175,0.56224 -0.55122,1.48828 -0.19843,0.92604 -0.19843,2.30408 z"
       id="path303577"
       style="font-size:22.5778px;line-height:1.25;font-family:Fascinate;-inkscape-font-specification:'Fascinate, Normal';fill:#f6e4aa;stroke-width:0.264583" />
    <path
       d="m 362.26023,157.70761 q -0.41893,0.23151 -0.8599,0.38585 -0.42995,0.15434 -0.89297,0.25356 v 0.82682 q 0,0.35278 -0.0772,0.63941 -0.0772,0.27561 -0.27561,0.47405 -0.18741,0.19844 -0.50712,0.30868 -0.30868,0.11024 -0.78272,0.11024 h -4.88378 q -0.52916,0 -0.85989,-0.0992 -0.33073,-0.0992 -0.51815,-0.28663 -0.18741,-0.18741 -0.25356,-0.47404 -0.0661,-0.28664 -0.0661,-0.67249 v -12.75513 q 0,-0.38585 0.0661,-0.67249 0.0661,-0.28663 0.25356,-0.47404 0.18742,-0.19844 0.51815,-0.29766 0.33073,-0.0992 0.85989,-0.0992 h 4.91685 q 0.79375,0 1.55443,0.1323 0.7717,0.13229 1.45521,0.42994 0.69453,0.28664 1.26779,0.77171 0.58429,0.48507 1.00322,1.20165 0.42994,0.70555 0.66146,1.65364 0.24253,0.9481 0.24253,2.18282 0,1.05833 -0.13229,1.91823 -0.13229,0.8599 -0.3638,1.55443 -0.23151,0.69453 -0.56224,1.23472 -0.31971,0.52917 -0.71658,0.93707 l 2.20486,2.91042 q 0.11024,0.15434 0.11024,0.29766 0,0.16536 -0.12127,0.28663 -0.11024,0.12126 -0.24253,0.19844 l -0.66146,0.38585 q -0.0772,0.0441 -0.16536,0.0661 -0.0772,0.0331 -0.16537,0.0331 -0.12127,0 -0.24253,-0.0772 -0.12127,-0.0772 -0.22049,-0.26458 z m 1.26779,-6.26181 q 0,-0.99219 -0.17639,-1.83004 -0.17639,-0.83785 -0.54019,-1.47726 -0.3638,-0.63941 -0.93707,-1.05833 -0.57326,-0.41893 -1.36701,-0.57327 v 10.39593 q 0.79375,-0.17639 1.36701,-0.63941 0.57327,-0.47404 0.93707,-1.1796 0.3638,-0.70556 0.54019,-1.62057 0.17639,-0.92605 0.17639,-2.01745 z"
       id="path303579"
       style="font-size:22.5778px;line-height:1.25;font-family:Fascinate;-inkscape-font-specification:'Fascinate, Normal';fill:#f6e4aa;stroke-width:0.264583" />
    <path
       d="m 368.86379,146.48485 q -0.71658,0.15434 -1.32292,0.27561 -0.26458,0.0551 -0.52916,0.0992 -0.25356,0.0441 -0.48507,0.0882 -0.23151,0.0331 -0.41893,0.0551 -0.17639,0.0221 -0.26458,0.0221 -0.18741,0 -0.31971,-0.0661 -0.12126,-0.0772 -0.12126,-0.29766 v -1.23472 q 0,-0.20946 0.17639,-0.37483 0.17639,-0.17639 0.55121,-0.17639 h 13.68118 q 0.37483,0 0.55121,0.17639 0.17639,0.16537 0.17639,0.37483 v 1.23472 q 0,0.22049 -0.13229,0.29766 -0.12127,0.0661 -0.30868,0.0661 -0.0992,0 -0.27561,-0.0221 -0.17639,-0.022 -0.4079,-0.0551 -0.23151,-0.0441 -0.49609,-0.0882 -0.25356,-0.0441 -0.51814,-0.0992 -0.60634,-0.12127 -1.32292,-0.27561 v 12.71104 q 0,0.37483 -0.0661,0.66146 -0.0661,0.27561 -0.25356,0.47405 -0.17639,0.18741 -0.49609,0.28663 -0.31971,0.0882 -0.8158,0.0882 h -4.91685 q -0.51814,0 -0.84887,-0.0992 -0.3197,-0.0992 -0.50712,-0.28663 -0.17639,-0.18741 -0.24253,-0.47404 -0.0661,-0.28664 -0.0661,-0.67249 z"
       id="path303581"
       style="font-size:22.5778px;line-height:1.25;font-family:Fascinate;-inkscape-font-specification:'Fascinate, Normal';fill:#f6e4aa;stroke-width:0.264583" />
    <path
       d="m 386.80035,144.8753 q 0.19844,0 0.34176,0.0551 0.14331,0.0441 0.25356,0.16536 0.12126,0.12127 0.22048,0.31971 0.0992,0.19843 0.20946,0.48507 l 5.06017,13.51581 q 0.0551,0.15434 0.0772,0.27561 0.022,0.12126 0.022,0.24253 0,0.39688 -0.24253,0.58429 -0.23151,0.18741 -0.49609,0.18741 h -6.25079 q -0.28663,0 -0.48507,-0.0661 -0.18742,-0.0772 -0.31971,-0.17639 -0.13229,-0.0992 -0.20946,-0.20946 -0.0661,-0.11025 -0.0882,-0.19844 l -0.12127,-0.38585 h -3.09783 l -0.0772,0.33073 q -0.0331,0.16536 -0.0772,0.29765 -0.0441,0.12127 -0.11025,0.22049 -0.0661,0.0882 -0.18741,0.14332 -0.11024,0.0441 -0.29766,0.0441 h -1.1355 q -0.35278,0 -0.35278,-0.27561 0,-0.0992 0.0331,-0.23151 0.0441,-0.14331 0.11025,-0.33073 l 4.60816,-13.94576 q 0.16536,-0.51814 0.37483,-0.7717 0.20946,-0.25356 0.59531,-0.27561 z m -4.78455,13.43865 h 2.38125 l -1.2237,-4.31051 z"
       id="path303583"
       style="font-size:22.5778px;line-height:1.25;font-family:Fascinate;-inkscape-font-specification:'Fascinate, Normal';fill:#f6e4aa;stroke-width:0.264583" />
    <path
       d="m 394.10948,146.41871 q 0,-0.38585 0.0661,-0.67249 0.0661,-0.28663 0.25356,-0.47404 0.18741,-0.19844 0.51814,-0.29766 0.33073,-0.0992 0.8599,-0.0992 h 4.91684 q 0.63941,0 0.97014,0.18742 0.34176,0.18741 0.47405,0.47404 0.14331,0.27561 0.15434,0.59532 0.011,0.30868 0.011,0.57326 v 12.49055 q 0.76068,-0.11024 1.41111,-0.19844 0.27561,-0.0331 0.55122,-0.0661 0.28663,-0.0441 0.51814,-0.0772 0.24254,-0.0331 0.42995,-0.0441 0.18742,-0.022 0.27561,-0.022 0.18741,0 0.29766,0.0772 0.12126,0.0661 0.12126,0.28663 v 1.01424 q 0,0.19844 -0.17639,0.37483 -0.16536,0.16536 -0.54019,0.16536 h -9.43681 q -0.51814,0 -0.84887,-0.0992 -0.31971,-0.0992 -0.50712,-0.28663 -0.18742,-0.18741 -0.25356,-0.47404 -0.0661,-0.28664 -0.0661,-0.67249 z"
       id="path303585"
       style="font-size:22.5778px;line-height:1.25;font-family:Fascinate;-inkscape-font-specification:'Fascinate, Normal';fill:#f6e4aa;stroke-width:0.264583" />
    <path
       style="fill:#f6e4aa;fill-opacity:1;stroke:none;stroke-width:0.140473;stroke-linejoin:round;stroke-miterlimit:4;stroke-dasharray:none;stroke-opacity:1"
       d="m 202.54099,157.29675 c -0.96757,-0.51401 -1.43785,-1.76293 -1.5293,-4.06134 -0.0993,-2.49543 0.26348,-3.96364 1.18506,-4.79623 0.39609,-0.35785 0.55388,-0.42192 1.03808,-0.42154 0.7284,5.3e-4 1.24282,0.31028 1.63941,0.98702 0.59688,1.0185 0.88992,3.16858 0.68072,4.99454 -0.21029,1.83541 -0.77892,2.9924 -1.64945,3.35613 -0.52895,0.22101 -0.86541,0.20656 -1.36452,-0.0586 z"
       id="path283607" />
    <ellipse
       style="fill:#f6e4aa;fill-opacity:1;stroke:none;stroke-width:0.308999;stroke-linejoin:round;stroke-miterlimit:4;stroke-dasharray:none;stroke-opacity:1"
       id="path301768"
       cx="202.79413"
       cy="152.55406"
       rx="3.4578793"
       ry="5.3896742" />
    <path
       d="m 199.21058,160.55195 q -0.88195,0 -1.77492,-0.15434 -0.88194,-0.15434 -1.69774,-0.52917 -0.8158,-0.37482 -1.52136,-0.99219 -0.70555,-0.62838 -1.23472,-1.55442 -0.51814,-0.93707 -0.8158,-2.20487 -0.29766,-1.27882 -0.29766,-2.96554 0,-1.67569 0.29766,-2.95452 0.29766,-1.27882 0.8158,-2.20486 0.52917,-0.93707 1.23472,-1.55443 0.70556,-0.61736 1.52136,-0.98116 0.8158,-0.37483 1.69774,-0.52917 0.89297,-0.15434 1.77492,-0.15434 0.88195,0 1.77491,0.15434 0.89297,0.15434 1.70877,0.52917 0.8158,0.3638 1.52136,0.98116 0.70556,0.61736 1.2237,1.55443 0.51814,0.92604 0.8158,2.20486 0.29765,1.27883 0.29765,2.95452 0,1.6757 -0.29765,2.95452 -0.29766,1.27882 -0.8158,2.21589 -0.51814,0.92604 -1.2237,1.55442 -0.70556,0.61737 -1.52136,0.99219 -0.8158,0.37483 -1.70877,0.52917 -0.89296,0.15434 -1.77491,0.15434 z m 0.99219,-8.40053 q 0,1.37804 0.19844,2.30408 0.20946,0.92605 0.55121,1.48829 0.34176,0.56224 0.76068,0.80477 0.42995,0.23151 0.88194,0.23151 0.452,0 0.88195,-0.23151 0.42995,-0.24253 0.76068,-0.80477 0.34175,-0.56224 0.54019,-1.48829 0.20946,-0.92604 0.20946,-2.30408 0,-1.37804 -0.20946,-2.30408 -0.19844,-0.92604 -0.54019,-1.48828 -0.33073,-0.56224 -0.76068,-0.79375 -0.42995,-0.24254 -0.88195,-0.24254 -0.45199,0 -0.88194,0.24254 -0.41892,0.23151 -0.76068,0.79375 -0.34175,0.56224 -0.55121,1.48828 -0.19844,0.92604 -0.19844,2.30408 z"
       id="path303559-2"
       style="font-size:22.5778px;line-height:1.25;font-family:Fascinate;-inkscape-font-specification:'Fascinate, Normal';fill:#0c0829;fill-opacity:1;stroke-width:0.264583" />
    <path
       d="m 208.23949,145.83449 q 0,-0.38585 0.0661,-0.67249 0.0662,-0.28663 0.25356,-0.47404 0.18741,-0.19844 0.51814,-0.29766 0.33073,-0.0992 0.8599,-0.0992 h 4.91684 q 0.76068,0 1.51034,0.0992 0.74965,0.0882 1.43316,0.30868 0.69453,0.22049 1.27882,0.57327 0.59531,0.35278 1.02526,0.88194 0.44097,0.51815 0.68351,1.2237 0.25356,0.69453 0.25356,1.60955 0,1.35599 -0.37483,2.29306 -0.3638,0.92604 -0.99219,1.53238 -0.62838,0.60634 -1.46623,0.92604 -0.82683,0.31971 -1.74185,0.46302 v 4.13412 q 0,0.25356 -0.0441,0.56224 -0.0441,0.30868 -0.22049,0.58429 -0.17639,0.26459 -0.54019,0.452 -0.3638,0.18741 -1.00321,0.18741 h -4.71841 q -0.52917,0 -0.8599,-0.0992 -0.33073,-0.0992 -0.51814,-0.28663 -0.18741,-0.18741 -0.25356,-0.47404 -0.0661,-0.28664 -0.0661,-0.67249 z m 11.24481,3.31832 q 0,-0.66146 -0.17639,-1.21268 -0.17639,-0.56224 -0.54019,-0.98116 -0.36381,-0.41893 -0.93707,-0.69453 -0.57326,-0.27561 -1.36702,-0.37483 v 6.8461 q 0.79376,-0.12127 1.36702,-0.44097 0.57326,-0.31971 0.93707,-0.79375 0.3638,-0.47405 0.54019,-1.06936 0.17639,-0.60634 0.17639,-1.27882 z"
       id="path303561-2"
       style="font-size:22.5778px;line-height:1.25;font-family:Fascinate;-inkscape-font-specification:'Fascinate, Normal';fill:#0c0829;fill-opacity:1;stroke-width:0.264583" />
    <path
       d="m 230.7291,149.82529 v 8.94072 q 1.06936,-0.15434 1.96233,-0.27561 0.37483,-0.0551 0.74965,-0.0992 0.38585,-0.0551 0.70556,-0.0992 0.3197,-0.0441 0.55122,-0.0662 0.23151,-0.022 0.3197,-0.022 0.18741,0 0.31971,0.0772 0.13229,0.0661 0.13229,0.28663 v 1.01424 q 0,0.19844 -0.0992,0.37483 -0.0992,0.16536 -0.47405,0.16536 h -10.71563 q -0.51815,0 -0.84887,-0.0992 -0.31971,-0.0992 -0.50712,-0.28663 -0.18742,-0.18741 -0.25356,-0.47404 -0.0662,-0.28664 -0.0662,-0.67249 v -12.38031 q 0,-0.62838 0.14332,-1.00321 0.14331,-0.38585 0.4079,-0.58429 0.26458,-0.20946 0.62838,-0.26458 0.37483,-0.0661 0.82683,-0.0661 h 9.96598 q 0.37483,0 0.47404,0.17639 0.11025,0.16537 0.11025,0.37483 v 0.78273 q 0,0.22048 -0.12127,0.29765 -0.11024,0.0661 -0.29766,0.0661 -0.11024,0 -0.34175,-0.0221 -0.22049,-0.022 -0.51814,-0.0551 -0.29766,-0.0441 -0.63941,-0.0882 -0.34176,-0.0441 -0.68351,-0.0992 -0.79375,-0.12126 -1.73082,-0.2756 v 2.80017 h 4.10105 q 0.23151,0 0.23151,0.23151 v 1.10244 q 0,0.24253 -0.23151,0.24253 z"
       id="path303563-2"
       style="font-size:22.5778px;line-height:1.25;font-family:Fascinate;-inkscape-font-specification:'Fascinate, Normal';fill:#0c0829;fill-opacity:1;stroke-width:0.264583" />
    <path
       d="m 249.58068,144.29108 q 0.20947,0 0.37483,0.1323 0.16537,0.13229 0.16537,0.50711 v 14.37571 q 0,0.8158 -0.77171,0.8158 h -3.82543 q -0.36381,0 -0.60634,-0.14331 -0.23151,-0.14332 -0.41893,-0.33073 l -5.64445,-5.89801 q 0.0992,1.43316 0.19844,2.63481 0.0331,0.51814 0.0772,1.02526 0.0441,0.50712 0.0772,0.94809 0.0331,0.44097 0.0551,0.7717 0.0331,0.33073 0.0441,0.47405 0.0221,0.18741 -0.0661,0.35278 -0.0772,0.16536 -0.37483,0.16536 h -1.38907 q -0.19843,0 -0.37482,-0.12126 -0.16537,-0.1323 -0.16537,-0.50712 v -14.38674 q 0,-0.8158 0.904,-0.8158 h 3.72622 q 0.41892,0 0.69453,0.17639 0.28663,0.17639 0.57326,0.46302 l 5.36884,5.32475 q -0.11024,-1.31189 -0.19843,-2.42535 -0.0441,-0.47405 -0.0882,-0.94809 -0.0331,-0.47405 -0.0661,-0.88195 -0.0331,-0.41892 -0.0661,-0.7276 -0.0221,-0.30868 -0.0331,-0.46302 -0.022,-0.17639 0.0661,-0.34176 0.0992,-0.17639 0.44098,-0.17639 z"
       id="path303565-7"
       style="font-size:22.5778px;line-height:1.25;font-family:Fascinate;-inkscape-font-specification:'Fascinate, Normal';fill:#0c0829;fill-opacity:1;stroke-width:0.264583" />
    <path
       d="m 258.91828,145.83449 q 0,-0.38585 0.0661,-0.67249 0.0661,-0.28663 0.25356,-0.47404 0.18741,-0.19844 0.51814,-0.29766 0.33073,-0.0992 0.8599,-0.0992 h 5.3027 q 0.82682,0 1.64262,0.12127 0.8158,0.11024 1.55443,0.4079 0.73863,0.29766 1.36701,0.82682 0.63941,0.51815 1.10244,1.34497 0.46302,0.82683 0.7276,1.98438 0.26458,1.15755 0.26458,2.723 0,1.84107 -0.28663,3.18603 -0.27561,1.33394 -0.76068,2.27101 -0.47404,0.93707 -1.1355,1.52136 -0.65043,0.57326 -1.41111,0.90399 -0.74966,0.31971 -1.56546,0.42995 -0.80477,0.11024 -1.60955,0.11024 h -5.19245 q -0.52917,0 -0.8599,-0.0992 -0.33073,-0.0992 -0.51814,-0.28663 -0.18741,-0.18741 -0.25356,-0.47404 -0.0661,-0.28664 -0.0661,-0.67249 z m 12.1047,6.09645 q 0,-1.36702 -0.22049,-2.4915 -0.22049,-1.12448 -0.69453,-1.91823 -0.47405,-0.79375 -1.21268,-1.23473 -0.7276,-0.44097 -1.75286,-0.45199 v 12.75513 q 1.02526,-0.011 1.76389,-0.52916 0.73863,-0.52917 1.20165,-1.43317 0.47404,-0.90399 0.69453,-2.10564 0.22049,-1.21268 0.22049,-2.59071 z"
       id="path303567-0"
       style="font-size:22.5778px;line-height:1.25;font-family:Fascinate;-inkscape-font-specification:'Fascinate, Normal';fill:#0c0829;fill-opacity:1;stroke-width:0.264583" />
    <path
       d="m 280.73541,144.29108 q 0.19843,0 0.34175,0.0551 0.14332,0.0441 0.25356,0.16536 0.12127,0.12127 0.22049,0.31971 0.0992,0.19843 0.20946,0.48507 l 5.06016,13.51581 q 0.0551,0.15434 0.0772,0.27561 0.0221,0.12126 0.0221,0.24253 0,0.39688 -0.24254,0.58429 -0.23151,0.18741 -0.49609,0.18741 h -6.25079 q -0.28663,0 -0.48507,-0.0661 -0.18741,-0.0772 -0.3197,-0.17639 -0.1323,-0.0992 -0.20947,-0.20946 -0.0661,-0.11025 -0.0882,-0.19844 l -0.12127,-0.38585 h -3.09783 l -0.0772,0.33073 q -0.0331,0.16536 -0.0772,0.29765 -0.0441,0.12127 -0.11024,0.22049 -0.0661,0.0882 -0.18742,0.14332 -0.11024,0.0441 -0.29765,0.0441 h -1.13551 q -0.35278,0 -0.35278,-0.27561 0,-0.0992 0.0331,-0.23151 0.0441,-0.14331 0.11024,-0.33073 l 4.60816,-13.94576 q 0.16537,-0.51814 0.37483,-0.7717 0.20946,-0.25356 0.59531,-0.27561 z m -4.78456,13.43865 h 2.38125 l -1.22369,-4.31051 z"
       id="path303569-3"
       style="font-size:22.5778px;line-height:1.25;font-family:Fascinate;-inkscape-font-specification:'Fascinate, Normal';fill:#0c0829;fill-opacity:1;stroke-width:0.264583" />
    <path
       d="m 289.27925,145.90063 q -0.71659,0.15434 -1.32292,0.27561 -0.26459,0.0551 -0.52917,0.0992 -0.25356,0.0441 -0.48507,0.0882 -0.23151,0.0331 -0.41892,0.0551 -0.17639,0.0221 -0.26459,0.0221 -0.18741,0 -0.3197,-0.0661 -0.12127,-0.0772 -0.12127,-0.29766 v -1.23472 q 0,-0.20946 0.17639,-0.37483 0.17639,-0.17639 0.55121,-0.17639 h 13.68118 q 0.37483,0 0.55122,0.17639 0.17639,0.16537 0.17639,0.37483 v 1.23472 q 0,0.22049 -0.13229,0.29766 -0.12127,0.0661 -0.30869,0.0661 -0.0992,0 -0.2756,-0.0221 -0.17639,-0.022 -0.4079,-0.0551 -0.23151,-0.0441 -0.4961,-0.0882 -0.25356,-0.0441 -0.51814,-0.0992 -0.60634,-0.12127 -1.32292,-0.27561 v 12.71104 q 0,0.37483 -0.0661,0.66146 -0.0661,0.27561 -0.25356,0.47405 -0.17639,0.18741 -0.4961,0.28663 -0.3197,0.0882 -0.8158,0.0882 h -4.91684 q -0.51815,0 -0.84888,-0.0992 -0.3197,-0.0992 -0.50711,-0.28663 -0.17639,-0.18741 -0.24254,-0.47404 -0.0661,-0.28664 -0.0661,-0.67249 z"
       id="path303571-4"
       style="font-size:22.5778px;line-height:1.25;font-family:Fascinate;-inkscape-font-specification:'Fascinate, Normal';fill:#0c0829;fill-opacity:1;stroke-width:0.264583" />
    <path
       d="m 307.21581,144.29108 q 0.19844,0 0.34176,0.0551 0.14331,0.0441 0.25356,0.16536 0.12126,0.12127 0.22048,0.31971 0.0992,0.19843 0.20947,0.48507 l 5.06016,13.51581 q 0.0551,0.15434 0.0772,0.27561 0.0221,0.12126 0.0221,0.24253 0,0.39688 -0.24254,0.58429 -0.23151,0.18741 -0.49609,0.18741 h -6.25079 q -0.28663,0 -0.48507,-0.0661 -0.18741,-0.0772 -0.31971,-0.17639 -0.13229,-0.0992 -0.20946,-0.20946 -0.0661,-0.11025 -0.0882,-0.19844 l -0.12127,-0.38585 h -3.09783 l -0.0772,0.33073 q -0.0331,0.16536 -0.0772,0.29765 -0.0441,0.12127 -0.11025,0.22049 -0.0661,0.0882 -0.18741,0.14332 -0.11024,0.0441 -0.29766,0.0441 h -1.1355 q -0.35278,0 -0.35278,-0.27561 0,-0.0992 0.0331,-0.23151 0.0441,-0.14331 0.11025,-0.33073 l 4.60816,-13.94576 q 0.16537,-0.51814 0.37483,-0.7717 0.20946,-0.25356 0.59531,-0.27561 z m -4.78455,13.43865 h 2.38125 l -1.2237,-4.31051 z"
       id="path303573-6"
       style="font-size:22.5778px;line-height:1.25;font-family:Fascinate;-inkscape-font-specification:'Fascinate, Normal';fill:#0c0829;fill-opacity:1;stroke-width:0.264583" />
    <path
       d="m 321.29386,145.83449 q 0,-0.38585 0.0661,-0.67249 0.0661,-0.28663 0.25356,-0.47404 0.18741,-0.19844 0.51814,-0.29766 0.33073,-0.0992 0.8599,-0.0992 h 4.91684 q 0.76068,0 1.51034,0.0992 0.74965,0.0882 1.43316,0.30868 0.69453,0.22049 1.27882,0.57327 0.59531,0.35278 1.02526,0.88194 0.44097,0.51815 0.68351,1.2237 0.25356,0.69453 0.25356,1.60955 0,1.35599 -0.37483,2.29306 -0.3638,0.92604 -0.99219,1.53238 -0.62839,0.60634 -1.46623,0.92604 -0.82683,0.31971 -1.74185,0.46302 v 4.13412 q 0,0.25356 -0.0441,0.56224 -0.0441,0.30868 -0.22049,0.58429 -0.17639,0.26459 -0.54019,0.452 -0.3638,0.18741 -1.00321,0.18741 h -4.71841 q -0.52917,0 -0.8599,-0.0992 -0.33073,-0.0992 -0.51814,-0.28663 -0.18741,-0.18741 -0.25356,-0.47404 -0.0661,-0.28664 -0.0661,-0.67249 z m 11.24481,3.31832 q 0,-0.66146 -0.17639,-1.21268 -0.17639,-0.56224 -0.54019,-0.98116 -0.36381,-0.41893 -0.93707,-0.69453 -0.57327,-0.27561 -1.36702,-0.37483 v 6.8461 q 0.79375,-0.12127 1.36702,-0.44097 0.57326,-0.31971 0.93707,-0.79375 0.3638,-0.47405 0.54019,-1.06936 0.17639,-0.60634 0.17639,-1.27882 z"
       id="path303575-3"
       style="font-size:22.5778px;line-height:1.25;font-family:Fascinate;-inkscape-font-specification:'Fascinate, Normal';fill:#0c0829;fill-opacity:1;stroke-width:0.264583" />
    <path
       d="m 342.55978,160.55195 q -0.88195,0 -1.77492,-0.15434 -0.88194,-0.15434 -1.69774,-0.52917 -0.8158,-0.37482 -1.52136,-0.99219 -0.70555,-0.62838 -1.23472,-1.55442 -0.51814,-0.93707 -0.8158,-2.20487 -0.29766,-1.27882 -0.29766,-2.96554 0,-1.67569 0.29766,-2.95452 0.29766,-1.27882 0.8158,-2.20486 0.52917,-0.93707 1.23472,-1.55443 0.70556,-0.61736 1.52136,-0.98116 0.8158,-0.37483 1.69774,-0.52917 0.89297,-0.15434 1.77492,-0.15434 0.88194,0 1.77491,0.15434 0.89297,0.15434 1.70877,0.52917 0.8158,0.3638 1.52136,0.98116 0.70555,0.61736 1.2237,1.55443 0.51814,0.92604 0.8158,2.20486 0.29765,1.27883 0.29765,2.95452 0,1.6757 -0.29765,2.95452 -0.29766,1.27882 -0.8158,2.21589 -0.51815,0.92604 -1.2237,1.55442 -0.70556,0.61737 -1.52136,0.99219 -0.8158,0.37483 -1.70877,0.52917 -0.89297,0.15434 -1.77491,0.15434 z m 0.99219,-8.40053 q 0,1.37804 0.19843,2.30408 0.20947,0.92605 0.55122,1.48829 0.34175,0.56224 0.76068,0.80477 0.42995,0.23151 0.88194,0.23151 0.452,0 0.88195,-0.23151 0.42995,-0.24253 0.76068,-0.80477 0.34175,-0.56224 0.54019,-1.48829 0.20946,-0.92604 0.20946,-2.30408 0,-1.37804 -0.20946,-2.30408 -0.19844,-0.92604 -0.54019,-1.48828 -0.33073,-0.56224 -0.76068,-0.79375 -0.42995,-0.24254 -0.88195,-0.24254 -0.45199,0 -0.88194,0.24254 -0.41893,0.23151 -0.76068,0.79375 -0.34175,0.56224 -0.55122,1.48828 -0.19843,0.92604 -0.19843,2.30408 z"
       id="path303577-6"
       style="font-size:22.5778px;line-height:1.25;font-family:Fascinate;-inkscape-font-specification:'Fascinate, Normal';fill:#0c0829;fill-opacity:1;stroke-width:0.264583" />
    <path
       d="m 361.56569,157.12339 q -0.41893,0.23151 -0.8599,0.38585 -0.42995,0.15434 -0.89297,0.25356 v 0.82682 q 0,0.35278 -0.0772,0.63941 -0.0772,0.27561 -0.27561,0.47405 -0.18741,0.19844 -0.50712,0.30868 -0.30868,0.11024 -0.78272,0.11024 h -4.88378 q -0.52916,0 -0.85989,-0.0992 -0.33073,-0.0992 -0.51815,-0.28663 -0.18741,-0.18741 -0.25356,-0.47404 -0.0661,-0.28664 -0.0661,-0.67249 v -12.75513 q 0,-0.38585 0.0661,-0.67249 0.0661,-0.28663 0.25356,-0.47404 0.18742,-0.19844 0.51815,-0.29766 0.33073,-0.0992 0.85989,-0.0992 h 4.91685 q 0.79375,0 1.55443,0.1323 0.7717,0.13229 1.45521,0.42994 0.69453,0.28664 1.26779,0.77171 0.58429,0.48507 1.00322,1.20165 0.42994,0.70555 0.66146,1.65364 0.24253,0.9481 0.24253,2.18282 0,1.05833 -0.13229,1.91823 -0.13229,0.8599 -0.3638,1.55443 -0.23151,0.69453 -0.56224,1.23472 -0.31971,0.52917 -0.71658,0.93707 l 2.20486,2.91042 q 0.11024,0.15434 0.11024,0.29766 0,0.16536 -0.12127,0.28663 -0.11024,0.12126 -0.24253,0.19844 l -0.66146,0.38585 q -0.0772,0.0441 -0.16536,0.0661 -0.0772,0.0331 -0.16537,0.0331 -0.12127,0 -0.24253,-0.0772 -0.12127,-0.0772 -0.22049,-0.26458 z m 1.26779,-6.26181 q 0,-0.99219 -0.17639,-1.83004 -0.17639,-0.83785 -0.54019,-1.47726 -0.3638,-0.63941 -0.93707,-1.05833 -0.57326,-0.41893 -1.36701,-0.57327 v 10.39593 q 0.79375,-0.17639 1.36701,-0.63941 0.57327,-0.47404 0.93707,-1.1796 0.3638,-0.70556 0.54019,-1.62057 0.17639,-0.92605 0.17639,-2.01745 z"
       id="path303579-3"
       style="font-size:22.5778px;line-height:1.25;font-family:Fascinate;-inkscape-font-specification:'Fascinate, Normal';fill:#0c0829;fill-opacity:1;stroke-width:0.264583" />
    <path
       d="m 368.16925,145.90063 q -0.71658,0.15434 -1.32292,0.27561 -0.26458,0.0551 -0.52916,0.0992 -0.25356,0.0441 -0.48507,0.0882 -0.23151,0.0331 -0.41893,0.0551 -0.17639,0.0221 -0.26458,0.0221 -0.18741,0 -0.31971,-0.0661 -0.12126,-0.0772 -0.12126,-0.29766 v -1.23472 q 0,-0.20946 0.17639,-0.37483 0.17639,-0.17639 0.55121,-0.17639 h 13.68118 q 0.37483,0 0.55121,0.17639 0.17639,0.16537 0.17639,0.37483 v 1.23472 q 0,0.22049 -0.13229,0.29766 -0.12127,0.0661 -0.30868,0.0661 -0.0992,0 -0.27561,-0.0221 -0.17639,-0.022 -0.4079,-0.0551 -0.23151,-0.0441 -0.49609,-0.0882 -0.25356,-0.0441 -0.51814,-0.0992 -0.60634,-0.12127 -1.32292,-0.27561 v 12.71104 q 0,0.37483 -0.0661,0.66146 -0.0661,0.27561 -0.25356,0.47405 -0.17639,0.18741 -0.49609,0.28663 -0.31971,0.0882 -0.8158,0.0882 h -4.91685 q -0.51814,0 -0.84887,-0.0992 -0.3197,-0.0992 -0.50712,-0.28663 -0.17639,-0.18741 -0.24253,-0.47404 -0.0661,-0.28664 -0.0661,-0.67249 z"
       id="path303581-3"
       style="font-size:22.5778px;line-height:1.25;font-family:Fascinate;-inkscape-font-specification:'Fascinate, Normal';fill:#0c0829;fill-opacity:1;stroke-width:0.264583" />
    <path
       d="m 386.10581,144.29108 q 0.19844,0 0.34176,0.0551 0.14331,0.0441 0.25356,0.16536 0.12126,0.12127 0.22048,0.31971 0.0992,0.19843 0.20946,0.48507 l 5.06017,13.51581 q 0.0551,0.15434 0.0772,0.27561 0.022,0.12126 0.022,0.24253 0,0.39688 -0.24253,0.58429 -0.23151,0.18741 -0.49609,0.18741 h -6.25079 q -0.28663,0 -0.48507,-0.0661 -0.18742,-0.0772 -0.31971,-0.17639 -0.13229,-0.0992 -0.20946,-0.20946 -0.0661,-0.11025 -0.0882,-0.19844 l -0.12127,-0.38585 h -3.09783 l -0.0772,0.33073 q -0.0331,0.16536 -0.0772,0.29765 -0.0441,0.12127 -0.11025,0.22049 -0.0661,0.0882 -0.18741,0.14332 -0.11024,0.0441 -0.29766,0.0441 h -1.1355 q -0.35278,0 -0.35278,-0.27561 0,-0.0992 0.0331,-0.23151 0.0441,-0.14331 0.11025,-0.33073 l 4.60816,-13.94576 q 0.16536,-0.51814 0.37483,-0.7717 0.20946,-0.25356 0.59531,-0.27561 z m -4.78455,13.43865 h 2.38125 l -1.2237,-4.31051 z"
       id="path303583-4"
       style="font-size:22.5778px;line-height:1.25;font-family:Fascinate;-inkscape-font-specification:'Fascinate, Normal';fill:#0c0829;fill-opacity:1;stroke-width:0.264583" />
    <path
       d="m 393.41494,145.83449 q 0,-0.38585 0.0661,-0.67249 0.0661,-0.28663 0.25356,-0.47404 0.18741,-0.19844 0.51814,-0.29766 0.33073,-0.0992 0.8599,-0.0992 h 4.91684 q 0.63941,0 0.97014,0.18742 0.34176,0.18741 0.47405,0.47404 0.14331,0.27561 0.15434,0.59532 0.011,0.30868 0.011,0.57326 v 12.49055 q 0.76068,-0.11024 1.41111,-0.19844 0.27561,-0.0331 0.55122,-0.0661 0.28663,-0.0441 0.51814,-0.0772 0.24254,-0.0331 0.42995,-0.0441 0.18742,-0.022 0.27561,-0.022 0.18741,0 0.29766,0.0772 0.12126,0.0661 0.12126,0.28663 v 1.01424 q 0,0.19844 -0.17639,0.37483 -0.16536,0.16536 -0.54019,0.16536 h -9.43681 q -0.51814,0 -0.84887,-0.0992 -0.31971,-0.0992 -0.50712,-0.28663 -0.18742,-0.18741 -0.25356,-0.47404 -0.0661,-0.28664 -0.0661,-0.67249 z"
       id="path303585-4"
       style="font-size:22.5778px;line-height:1.25;font-family:Fascinate;-inkscape-font-specification:'Fascinate, Normal';fill:#0c0829;fill-opacity:1;stroke-width:0.264583" />
    <path
       style="fill:#419592;fill-opacity:1;stroke:none;stroke-width:0.264583px;stroke-linecap:butt;stroke-linejoin:miter;stroke-opacity:1"
       d="m 191.71852,162.19708 -0.0734,3.48091 125.68239,2.55446 -0.0893,-3.90538 z"
       id="path350915" />
    <path
       style="fill:#f6e6aa;fill-opacity:1;stroke:none;stroke-width:0.264583px;stroke-linecap:butt;stroke-linejoin:miter;stroke-opacity:1"
       d="m 317.2382,164.32707 88.91522,-0.26273 -0.86688,5.14619 -87.95904,-0.97808 z"
       id="path362494" />
    <path
       style="fill:#f6e4aa;fill-opacity:1;stroke:none;stroke-width:0.265339px;stroke-linecap:butt;stroke-linejoin:miter;stroke-opacity:1"
       d="m 125.92316,92.026779 c 1.88073,25.377321 4.25232,58.535931 -0.21678,87.619511 v 0"
       id="path5241" />
    <path
       style="fill:#419592;fill-opacity:1;stroke:none;stroke-width:0.262874px;stroke-linecap:butt;stroke-linejoin:miter;stroke-opacity:1"
       d="m 468.81931,177.96769 c -1.88286,-24.87988 -3.50353,-83.997411 0.21702,-85.902025 v 0"
       id="path5241-4" />
  </g>
</svg>
